<svg xmlns="http://www.w3.org/2000/svg" width="167.816" height="50.071" viewBox="0 0 167.816 50.071"><path d="M0,72.046A21.275,21.275,0,1,0,30.087,41.96L26.326,45.72A15.956,15.956,0,1,1,3.761,68.286Z" transform="translate(0 -28.207)" fill="#00c98d"/><path d="M22.949,79.952A10.637,10.637,0,1,0,37.992,64.908l-3.761,3.761a5.319,5.319,0,0,1-7.522,7.522Z" transform="translate(-15.427 -43.633)" fill="#00c98d"/><path d="M40.255,6.231A21.275,21.275,0,0,0,10.168,36.318l3.761-3.761A15.956,15.956,0,0,1,36.494,9.992Z" transform="translate(-2.647 0)" fill="#00c98d"/><path d="M54.55,35.57A10.637,10.637,0,0,0,39.506,50.613l3.761-3.761a5.319,5.319,0,1,1,7.522-7.522Z" transform="translate(-24.463 -21.817)" fill="#00c98d"/><path d="M40.255,6.231A21.275,21.275,0,0,0,10.168,36.318l3.761-3.761A15.956,15.956,0,0,1,36.494,9.992Z" transform="translate(-2.647 0)" fill="rgba(255,255,255,0.4)"/><path d="M54.55,35.57A10.637,10.637,0,0,0,39.506,50.613l3.761-3.761a5.319,5.319,0,1,1,7.522-7.522Z" transform="translate(-24.463 -21.817)" fill="rgba(255,255,255,0.4)"/><path d="M167.975,52.878a3.7,3.7,0,0,1-3.706,3.966c-1.972,0-3.286-1.394-3.286-3.6V42.792h-4.1V53.875c0,4.182,2.38,6.55,5.8,6.55a5.372,5.372,0,0,0,5.235-3.32h.181V60.2h3.978V42.792h-4.1Zm7.682,13.848h4.1v-9.27h.17a5.247,5.247,0,0,0,4.986,3.048c4.1,0,7.173-3.252,7.173-8.987,0-5.8-3.162-8.953-7.185-8.953a5.163,5.163,0,0,0-4.975,3.105h-.238V42.792h-4.034ZM179.68,51.5c0-3.377,1.451-5.564,4.091-5.564,2.731,0,4.136,2.323,4.136,5.564,0,3.264-1.428,5.644-4.136,5.644C181.153,57.139,179.68,54.872,179.68,51.5Zm29.041-4.1c-.567-2.946-2.924-4.828-7-4.828-4.193,0-7.049,2.062-7.037,5.281-.011,2.538,1.553,4.216,4.9,4.907l2.969.623c1.6.351,2.346,1,2.346,1.983,0,1.19-1.292,2.085-3.241,2.085-1.881,0-3.1-.816-3.456-2.38l-4,.385c.51,3.2,3.2,5.088,7.468,5.088,4.351,0,7.423-2.255,7.434-5.553-.011-2.482-1.609-4-4.9-4.714l-2.969-.635c-1.768-.4-2.47-1.009-2.459-2.017-.011-1.179,1.292-1.994,3-1.994a3.042,3.042,0,0,1,3.207,2.176Zm11.81-4.6H217.1v-4.17H213v4.17h-2.47v3.173H213v9.678c-.022,3.275,2.357,4.884,5.44,4.794a8.248,8.248,0,0,0,2.414-.408l-.691-3.207a5.117,5.117,0,0,1-1.2.159c-1.032,0-1.858-.363-1.858-2.017v-9h3.433Zm7.8,17.758a5.376,5.376,0,0,0,5.11-2.742h.136V60.2h3.944V48.549c0-4.6-3.752-5.984-7.072-5.984-3.661,0-6.471,1.632-7.378,4.8l3.83.544a3.476,3.476,0,0,1,3.57-2.21c1.9,0,2.947.975,2.947,2.686v.068c0,1.179-1.235,1.235-4.306,1.564-3.377.363-6.607,1.371-6.607,5.292C222.509,58.736,225.013,60.55,228.334,60.55Zm1.065-3.014c-1.712,0-2.935-.782-2.935-2.289,0-1.575,1.371-2.233,3.207-2.493,1.077-.147,3.229-.419,3.762-.85v2.051C233.433,55.892,231.868,57.535,229.4,57.535Zm25.37-10.142c-.567-2.946-2.924-4.828-7-4.828-4.193,0-7.05,2.062-7.038,5.281-.012,2.538,1.553,4.216,4.9,4.907l2.97.623c1.6.351,2.345,1,2.345,1.983,0,1.19-1.293,2.085-3.241,2.085-1.882,0-3.1-.816-3.456-2.38l-4,.385c.509,3.2,3.2,5.088,7.468,5.088,4.35,0,7.423-2.255,7.433-5.553-.01-2.482-1.609-4-4.9-4.714l-2.969-.635c-1.768-.4-2.471-1.009-2.459-2.017-.012-1.179,1.291-1.994,3-1.994a3.042,3.042,0,0,1,3.207,2.176ZM261.989,50a3.615,3.615,0,0,1,3.762-3.966c2.153,0,3.422,1.371,3.422,3.717V60.2h4.1V49.115c0-4.2-2.381-6.55-6-6.55A5.115,5.115,0,0,0,262.1,45.75h-.2V36.99h-4.012V60.2h4.1Z" transform="translate(-105.46 -24.866)" fill="#050505"/></svg>