<svg xmlns="http://www.w3.org/2000/svg" width="197.579" height="46.3" viewBox="0 0 197.579 46.3"><g transform="translate(0 0)"><path d="M.431,35.047A.956.956,0,0,1,0,34.3V12a.956.956,0,0,1,.431-.745L20,.1a.957.957,0,0,1,.862,0l19.564,11.15a.955.955,0,0,1,.431.745V34.3a.957.957,0,0,1-.431.745L20.858,46.2a.956.956,0,0,1-.862,0Zm58.8-20.83v9.047H63.1c2.807,0,4.055-1.144,4.055-3.016V17.233c0-1.872-1.248-3.016-4.055-3.016Zm0,11.924v8.077c0,.485-.125.693-.561.693h-1.9c-.406,0-.561-.208-.561-.693V12.033c0-.485.156-.693.561-.693H63.1c5.366,0,7.082,2.5,7.082,5.338V20.8c0,2.842-1.716,5.338-7.082,5.338ZM77.221,14.217v8.492h3.868c2.808,0,4.056-1.109,4.056-3.016V17.233c0-1.872-1.248-3.016-4.056-3.016Zm0,11.369v8.631c0,.485-.125.693-.562.693h-1.9c-.406,0-.561-.208-.561-.693V12.033c0-.485.156-.693.561-.693h6.333c5.366,0,7.082,2.5,7.082,5.338v3.6a4.746,4.746,0,0,1-3.65,4.853l3.744,9.081c.156.416-.125.693-.561.693H85.831c-.437,0-.5-.277-.686-.693L81.62,25.586Zm27.351-8.631c0-1.872-1.317-3.016-4.28-3.016-2.931,0-4.248,1.144-4.248,3.016V29.3c0,1.872,1.317,3.016,4.248,3.016,2.964,0,4.28-1.144,4.28-3.016ZM92.817,16.4c0-2.842,1.844-5.338,7.475-5.338,5.663,0,7.508,2.5,7.508,5.338V29.85c0,2.842-1.845,5.338-7.508,5.338-5.631,0-7.475-2.5-7.475-5.338Zm32.369-5.061c.428,0,.626.174.626.659v1.56c0,.485-.2.659-.626.659h-5.268v20c0,.485-.165.693-.593.693h-2.041c-.428,0-.593-.208-.593-.693v-20h-5.269c-.461,0-.626-.173-.626-.659V12c0-.485.165-.659.626-.659Zm15.346,5.615c0-1.872-1.317-3.016-4.281-3.016-2.93,0-4.248,1.144-4.248,3.016V29.3c0,1.872,1.317,3.016,4.248,3.016,2.964,0,4.281-1.144,4.281-3.016ZM128.776,16.4c0-2.842,1.844-5.338,7.475-5.338,5.664,0,7.508,2.5,7.508,5.338V29.85c0,2.842-1.844,5.338-7.508,5.338-5.631,0-7.475-2.5-7.475-5.338Zm34.043,17.851c0,.451-.125.659-.561.659h-1.716a.552.552,0,0,1-.561-.312l-7.332-14.281a22.1,22.1,0,0,1-1.123-2.5v16.43c0,.451-.156.659-.561.659h-1.747c-.406,0-.561-.208-.561-.659V12c0-.45.156-.659.561-.659h1.747a.519.519,0,0,1,.5.277l7.519,14.593c.437.832.967,2.218.967,2.218V12c0-.45.187-.659.592-.659h1.716c.437,0,.561.208.561.659Zm5.365.659c-.405,0-.561-.208-.561-.693V12.033c0-.485.156-.693.561-.693h10.67c.406,0,.593.174.593.659v1.56c0,.485-.187.659-.593.659h-8.2v7h7.643c.437,0,.624.173.624.659v1.491c0,.451-.187.659-.624.659h-7.643v8.007H179.2c.406,0,.593.139.593.624v1.594c0,.486-.187.659-.593.659Zm28.8-23.571c.406,0,.593.174.593.659v1.56c0,.485-.187.659-.593.659h-4.992v20c0,.485-.156.693-.561.693H189.5c-.406,0-.562-.208-.562-.693v-20h-4.992c-.437,0-.593-.173-.593-.659V12c0-.485.156-.659.593-.659Z" transform="translate(0)" fill="#e15b29"/></g></svg>