<svg xmlns="http://www.w3.org/2000/svg" width="110.42" height="22.597" viewBox="0 0 110.42 22.597"><g transform="translate(0 0.24)"><g transform="translate(0 -0.24)"><path d="M5429.67-772.4c.6.407,1.2.792,1.767,1.252a5.56,5.56,0,0,1-1.135,9.033,9.862,9.862,0,0,1-4.426.976c-3.113.018-6.226,0-9.338.014-.386,0-.521-.086-.52-.5.016-3.608,0-7.215.012-10.823a2.563,2.563,0,0,1,2.511-2.6c.5-.069,1.02-.04,1.521-.148a34.667,34.667,0,0,1,7.4,1.813q.8.3,1.6.6A1.025,1.025,0,0,1,5429.67-772.4Z" transform="translate(-5416.019 781.475)" fill="#8989a2"/><path d="M5429.717-820.891a48.426,48.426,0,0,0-5.726-1.887c-1.258-.275-2.506-.6-3.786-.761-.17-.123-.444.05-.569-.2-.531-.148-1.065-.289-1.595-.445a2.535,2.535,0,0,1-1.944-2.524c-.045-.971-.015-1.946-.024-2.919,0-.2.021-.325.272-.32,3.738.075,7.48-.157,11.215.138a6.528,6.528,0,0,1,1.938.472c2.313.941,2.929,2.974,2.675,5.085A4.238,4.238,0,0,1,5429.717-820.891Z" transform="translate(-5416.065 829.965)" fill="#8989a2"/><path d="M5875.954-804.93a5.226,5.226,0,0,1,3.958,1.935,4.241,4.241,0,0,1,.759,1.643c.07.287-.01.4-.307.462a17.552,17.552,0,0,0-1.88.483c-.347.114-.444,0-.578-.292a2.887,2.887,0,0,0-3.915-1.347,1.261,1.261,0,0,0-.732,1.2,1.155,1.155,0,0,0,.8,1.079c1.457.664,3.035,1.01,4.472,1.717a4.445,4.445,0,0,1,2.252,1.937,4.224,4.224,0,0,1-1.957,5.559,6.266,6.266,0,0,1-6.892-.545,5,5,0,0,1-1.9-3.529c-.034-.243.009-.384.293-.438.748-.143,1.5-.3,2.23-.494.335-.091.386.04.434.305a5.475,5.475,0,0,0,.24.936,2.54,2.54,0,0,0,3.247,1.849,3.776,3.776,0,0,0,.985-.281,1.405,1.405,0,0,0,.918-1.325,1.529,1.529,0,0,0-.839-1.45,13.447,13.447,0,0,0-2.915-1.145,9.464,9.464,0,0,1-2.614-1.244,3.7,3.7,0,0,1-.015-5.939A5.794,5.794,0,0,1,5875.954-804.93Z" transform="translate(-5817.992 807.8)" fill="#8989a2"/><path d="M6193.71-772.635a3.923,3.923,0,0,1,4.675-1.055,3.509,3.509,0,0,1,2.176,3.406c.042,2.365.005,4.731.017,7.1,0,.3-.078.4-.382.388-.629-.022-1.261-.026-1.889,0-.341.015-.4-.111-.4-.423.013-1.984.007-3.968.007-5.951,0-.152.006-.306-.007-.457-.112-1.3-.734-1.961-1.8-1.921-1.523.057-2.263.738-2.269,2.12-.009,2.041-.012,4.082.007,6.123,0,.383-.066.538-.488.512-.627-.039-1.259-.026-1.888,0-.308.011-.382-.1-.381-.391q.015-5.065,0-10.129c0-.295.077-.405.383-.394a13.923,13.923,0,0,0,1.659,0c.473-.039.67.1.583.582A3.46,3.46,0,0,0,6193.71-772.635Z" transform="translate(-6102.266 780.468)" fill="#8989a2"/><path d="M6087.445-772.31a2.636,2.636,0,0,1,2.955-1.323c.288.065.372.176.314.468-.12.616-.223,1.237-.3,1.86-.035.286-.1.38-.418.333-1.531-.226-2.312.405-2.353,1.98-.052,1.981-.043,3.964-.024,5.946,0,.462-.133.581-.572.555-.608-.037-1.22-.02-1.83,0-.248.006-.325-.067-.325-.32q.012-5.176,0-10.351c0-.27.07-.366.349-.356.571.02,1.146.034,1.715,0,.408-.027.55.106.493.5A6.073,6.073,0,0,0,6087.445-772.31Z" transform="translate(-6008.24 780.159)" fill="#8989a2"/><path d="M5728.928-765.555c0,1.641-.01,3.282.008,4.923,0,.358-.067.5-.461.48-.628-.036-1.259-.023-1.889,0-.3.01-.388-.083-.387-.386q.015-5.066,0-10.133c0-.294.075-.4.382-.4.648.02,1.3.024,1.946,0,.335-.013.409.106.406.42C5728.92-768.952,5728.927-767.253,5728.928-765.555Z" transform="translate(-5690.651 777.82)" fill="#8989a2"/><path d="M6149.35-765.6c0,1.641-.011,3.283.009,4.924,0,.379-.062.543-.487.515-.608-.039-1.222-.023-1.832,0-.287.009-.395-.06-.393-.373q.022-5.067.011-10.135c0-.331.1-.417.421-.406.61.023,1.223.028,1.833,0,.352-.017.451.082.447.441C6149.338-768.961,6149.35-767.281,6149.35-765.6Z" transform="translate(-6062.917 777.83)" fill="#8989a2"/><path d="M5727.641-805.507c-1.39,0-1.39,0-1.39-1.379,0-1.142,0-1.146,1.172-1.141.493,0,1.129-.16,1.439.083.331.26.1.926.106,1.413.018,1.023.005,1.023-1.042,1.023Z" transform="translate(-5690.698 810.585)" fill="#8989a2"/><path d="M6147.741-807.644c1.3,0,1.3,0,1.3,1.3,0,1.219,0,1.229-1.2,1.214-.489-.006-1.138.219-1.419-.1-.239-.273-.073-.906-.073-1.379,0-1.033,0-1.033,1.048-1.033Z" transform="translate(-6062.604 810.202)" fill="#8989a2"/><path d="M5439.077-775.64c.183.086.41.047.569.2l-1.617,0C5438.345-775.684,5438.757-775.422,5439.077-775.64Z" transform="translate(-5435.507 781.866)" fill="#8989a2"/><path d="M5623.871-795.888a4.147,4.147,0,0,0,.949-.9,3.369,3.369,0,0,0,.23-3.431,3.665,3.665,0,0,0-3.151-2.245c-2.187-.189-4.386-.035-6.579-.079-.377-.008-.378.176-.377.452q.01,3.519,0,7.038,0,3.29,0,6.58c0,.179-.117.441.259.432a65.262,65.262,0,0,0,7.089-.133,4.144,4.144,0,0,0,3.557-3.319A3.777,3.777,0,0,0,5623.871-795.888Zm-5.67-4.087c.916.015,1.833-.009,2.749.012a1.542,1.542,0,0,1,1.672,1.627,1.53,1.53,0,0,1-1.68,1.607c-.438.013-.878,0-1.317,0v0c-.478,0-.955-.016-1.431.006-.29.013-.4-.06-.393-.374.022-.839.023-1.68,0-2.519C5617.79-799.939,5617.925-799.98,5618.2-799.976Zm3.367,9.206c-.568.04-1.141.007-1.712.007v.03c-.552,0-1.1-.01-1.657,0-.271.007-.408-.037-.4-.366.023-1.008.017-2.017,0-3.026,0-.267.066-.362.348-.357,1.123.018,2.247-.011,3.37.023a1.68,1.68,0,0,1,1.689,1.717C5623.224-791.5,5622.7-790.85,5621.567-790.77Z" transform="translate(-5592.138 805.698)" fill="#8989a2"/><path d="M6297.143-773.371c-.291-.249-.939-.088-1.43-.091-1.013-.006-1.013,0-1.16.96a7.806,7.806,0,0,0-.667-.6,4.451,4.451,0,0,0-5.375.518,6.808,6.808,0,0,0-1.025,7.926c1.54,2.612,5.062,3.262,7.01,1.086,0,.489,0,.92,0,1.35a2.049,2.049,0,0,1-2.206,2.274,2.884,2.884,0,0,1-2.767-1.775c-.369.248-.7.469-1.032.693-1.1.749-1.116.866-.179,1.864.026.028.055.053.082.08a5.393,5.393,0,0,0,4.077,1.455,4.622,4.622,0,0,0,4.767-4.759q0-4.779,0-9.557C6297.232-772.439,6297.45-773.108,6297.143-773.371Zm-2.623,4.4c-.013.324,0,.648,0,.972s0,.648,0,.972a2.153,2.153,0,0,1-1.4,2.2,2.541,2.541,0,0,1-2.756-.513c-1.307-1.188-1.3-4.416.152-5.484a2.551,2.551,0,0,1,2.689-.337A2.114,2.114,0,0,1,6294.52-768.974Z" transform="translate(-6186.887 780.221)" fill="#8989a2"/><path d="M5774.768-773.159c0-.3-.132-.339-.378-.331-.419.014-.839,0-1.259,0-.9,0-.9,0-.953.9,0,.02-.052.038-.081.058a7.651,7.651,0,0,0-.67-.611,4.457,4.457,0,0,0-5.455.629,6.794,6.794,0,0,0-.946,7.794c1.572,2.73,5.145,3.251,7.045,1.093,0,.634.021,1.146,0,1.655a1.907,1.907,0,0,1-1.477,1.878,2.8,2.8,0,0,1-2.892-.742c-.263-.264-.34-.829-.7-.8s-.671.4-1,.622c-1.1.748-1.113.874-.177,1.85.026.027.055.053.082.08a5.51,5.51,0,0,0,4.487,1.415,4.49,4.49,0,0,0,4.349-4.389C5774.808-765.756,5774.756-769.458,5774.768-773.159Zm-2.675,5.083h-.011c0,.4.022.8,0,1.2a2.142,2.142,0,0,1-1.476,2.042,2.45,2.45,0,0,1-2.655-.509,4.058,4.058,0,0,1,.037-5.44,2.494,2.494,0,0,1,2.724-.426,2.149,2.149,0,0,1,1.386,2.218C5772.088-768.687,5772.093-768.382,5772.093-768.076Z" transform="translate(-5724.312 780.244)" fill="#8989a2"/><path d="M5988.73-770.48a4.648,4.648,0,0,0-3.8-3.329,3.969,3.969,0,0,0-3.758,1.285,3.016,3.016,0,0,1,0-.446c.088-.484-.11-.626-.583-.583a9.393,9.393,0,0,1-1.488,0c-.392-.027-.513.078-.512.493q.023,7.272,0,14.545c0,.385.074.548.5.518a9.184,9.184,0,0,1,1.6,0c.534.056.617-.154.609-.632-.03-1.65-.012-3.3-.012-4.975.088.035.131.038.15.062,1.452,1.8,4.847,1.587,6.412-.543A6.629,6.629,0,0,0,5988.73-770.48Zm-3.328,5.115a2.46,2.46,0,0,1-2.719.438,2.147,2.147,0,0,1-1.388-2.1c-.01-.362,0-.724,0-1.086,0-.3,0-.61,0-.915a2.252,2.252,0,0,1,1.521-2.305,2.675,2.675,0,0,1,2.824.722A4.186,4.186,0,0,1,5985.4-765.365Z" transform="translate(-5914.121 780.3)" fill="#8989a2"/></g></g></svg>