<svg xmlns="http://www.w3.org/2000/svg" width="174.412" height="47.214" viewBox="0 0 174.412 47.214"><g transform="translate(51.302 10.73)"><path d="M.6,30.261V8.8H3.359L16.474,26.071V8.8H19.1V30.261H16.338L3.223,12.82V30.261Z" transform="translate(-0.6 -5.973)" fill="#b52e31" fill-rule="evenodd"/><path d="M84.237,29.08a15.927,15.927,0,0,1-5.587.988Q67,30.067,67,18.894,67,8.317,78.241,8.3a19.922,19.922,0,0,1,6,.886V11.57a15.591,15.591,0,0,0-5.689-1.056c-5.859,0-8.789,2.793-8.789,8.312,0,5.961,2.9,8.925,8.652,8.925a15,15,0,0,0,3.066-.375V20.189h2.759V29.08Z" transform="translate(-44.381 -5.643)" fill="#b52e31" fill-rule="evenodd"/><path d="M130.6,21.983V8.8h2.759V21.983c0,4.122,2.044,6.2,6.166,6.2,4.088,0,6.166-2.078,6.166-6.2V8.8h2.759V21.983c0,5.621-2.964,8.448-8.925,8.448S130.6,27.6,130.6,21.983Z" transform="translate(-86.316 -5.973)" fill="#b52e31" fill-rule="evenodd"/><path d="M200.259,8.8V28.013H211.5v2.248h-14V8.8Z" transform="translate(-130.426 -5.973)" fill="#b52e31" fill-rule="evenodd"/><path d="M244.7,24.788h-2.9L252.462.5l10.662,24.288h-3.066L257.3,18.043h-7.085l.749-2.248h5.416l-4.02-9.709-7.665,18.7Z" transform="translate(-159.635 -0.5)" fill="#b52e31" fill-rule="evenodd"/><path d="M313.1,30.261V8.8h9.163c4.088,0,6.132,1.7,6.132,5.144,0,2.793-2.01,4.871-6,6.2l7.358,10.117h-3.645l-6.813-9.64V18.815c4.088-.647,6.166-2.214,6.166-4.735,0-1.976-1.124-2.964-3.406-2.964h-6.132V30.261Z" transform="translate(-206.647 -5.973)" fill="#b52e31" fill-rule="evenodd"/></g><path d="M0,7.835,21.972,0,44.523,7.7,40.878,36.756,21.972,47.214,3.372,36.892,0,7.835Z" fill="#e23237" fill-rule="evenodd"/><path d="M87.051,7.7,64.5,0V47.214L83.406,36.756,87.051,7.7Z" transform="translate(-42.528)" fill="#b52e31" fill-rule="evenodd"/><path d="M38.094,16.2h0L24.4,46.654l5.11-.1,2.759-6.881H44.5l3,6.949,4.871.1L38.094,16.2Zm.034,9.777,4.633,9.674H34.074l4.054-9.674Z" transform="translate(-16.088 -10.681)" fill="#fff" fill-rule="evenodd"/></svg>