<svg xmlns="http://www.w3.org/2000/svg" width="106.942" height="37.002" viewBox="0 0 106.942 37.002"><path d="M1.359,21.754a.607.607,0,0,1,.88-.236,11.729,11.729,0,0,0,4.88,1.321c1.389,0,2.169-.609,2.169-1.356,0-1.084-1.186-1.423-3.457-2.1C2.51,18.366.443,16.841.409,14.062c0-2.915,2.2-5.152,6.643-5.152a10.4,10.4,0,0,1,5.795,1.728c.373.2.475.475.339.746L11.7,13.757a.6.6,0,0,1-.813.2A8.324,8.324,0,0,0,6.95,12.876c-1.762,0-2.169.78-2.169,1.322,0,.982,1.288,1.355,2.881,1.8,4.1,1.119,6.269,2.576,6.269,5.49,0,3.525-3.117,5.219-6.913,5.219A12.385,12.385,0,0,1,.207,24.669a.544.544,0,0,1-.136-.707Zm30.9,4.677H28.8a1.22,1.22,0,0,1-1.253-1.355V16.468a3.025,3.025,0,0,0-3.22-3.288,4.26,4.26,0,0,0-3.762,2.3V25.855a.5.5,0,0,1-.407.542.2.2,0,0,1-.136.034H16.2a.411.411,0,0,1-.3-.1.566.566,0,0,1-.2-.474V3.626a25.364,25.364,0,0,0-.338-3.05A.508.508,0,0,1,15.891,0h3.151a1.335,1.335,0,0,1,1.526,1.525V11.76a7,7,0,0,1,5.626-2.848c3.457,0,6.235,2.2,6.235,6.439v7.931a21.228,21.228,0,0,0,.169,2.44c.1.371-.034.709-.338.709ZM87.649,9.723V25.889a.509.509,0,0,1-.509.542H83.31a.5.5,0,0,1-.542-.542V23.822a6.956,6.956,0,0,1-5.626,2.851c-3.457,0-6.235-2.2-6.235-6.439V12.3A14.9,14.9,0,0,0,70.7,9.865c-.067-.373.068-.712.373-.712H74.5a1.228,1.228,0,0,1,1.288,1.355v8.609A3.025,3.025,0,0,0,79,22.4a4.3,4.3,0,0,0,3.762-2.3V9.723a.565.565,0,0,1,.542-.576h3.8A.527.527,0,0,1,87.649,9.723Zm18.937,16.708h-3.457a1.22,1.22,0,0,1-1.253-1.355V16.468a3.034,3.034,0,0,0-3.253-3.288,4.345,4.345,0,0,0-3.763,2.3V25.855a.537.537,0,0,1-.508.576h-3.83a.526.526,0,0,1-.542-.576V9.69a.529.529,0,0,1,.509-.542h3.863a.474.474,0,0,1,.508.542v2.068a7.02,7.02,0,0,1,5.66-2.848c3.422,0,6.235,2.2,6.235,6.439V23.28a15.481,15.481,0,0,0,.17,2.44C106.992,26.093,106.857,26.431,106.586,26.431ZM53.8,29.2a.9.9,0,0,0-.877.217A3.428,3.428,0,0,0,51.9,31.95c0,3.321,3.863,5.016,8.608,5.05,4.948.068,9.455-1.626,9.455-6.134,0-3.084-2.237-4.2-6.27-4.811l-5.185-.746c-1.627-.237-2.711-.373-2.711-1.153,0-.542.475-1.051,1.83-.678a9,9,0,0,0,3.49.78c4.3.034,7.794-2.779,7.794-7.083a5.878,5.878,0,0,0-2.271-4.88,4.492,4.492,0,0,0,2.406-.475l.132-2.029a.484.484,0,0,0-.542-.542c-4,.338-5.321-.3-7.557-.3-4.948,0-8.167,3.321-8.1,7.625a6.911,6.911,0,0,0,2.339,5.117,3.022,3.022,0,0,0-3.491,2.982c0,1.5.976,2.386,2.4,2.928a8.632,8.632,0,0,0,.96.293c1.146.25,3.316.71,5.284,1.05l.414.07H60.9l2.187.374c1.39.237,1.729.848,1.729,1.491,0,1.457-1.864,2.1-3.8,2.1-2.609,0-4.575-.542-4.575-2.3v-.008a.93.93,0,0,0-.667-.913Zm7.116-16.157A3.408,3.408,0,0,1,64.44,16.6a3.317,3.317,0,0,1-3.456,3.491,3.444,3.444,0,0,1-3.592-3.559,3.389,3.389,0,0,1,3.524-3.488ZM33.59,17.693c0-5.343,4.05-8.95,9.189-8.95a8.78,8.78,0,0,1,9.154,8.95c0,5.313-4.05,8.915-9.154,8.915-5.144,0-9.194-3.6-9.194-8.913Zm13.85,0a4.681,4.681,0,1,0-9.359,0,4.678,4.678,0,1,0,9.353,0ZM49.578,5.912a1.943,1.943,0,0,0-.692-3.823,38.661,38.661,0,0,1-12.253,0,1.943,1.943,0,0,0-.715,3.819,41.569,41.569,0,0,0,7.009.565,37.648,37.648,0,0,0,6.65-.561Z" transform="translate(0)" fill="#5d50c6"/></svg>