<svg xmlns="http://www.w3.org/2000/svg" width="103.513" height="27.11" viewBox="0 0 103.513 27.11"><rect width="103.513" height="27.11" fill="#d40000"/><path d="M20.727,20.419H35.7v1.972L23.623,37.117H36.008v2.156H20.419V37.3L32.5,22.576H20.727Zm25.385,2.526L42.6,32.311h7.024Zm-1.479-2.526h2.9L54.8,39.273H52.15l-1.725-4.806H41.8l-1.725,4.806H37.363ZM60.16,30.277v6.9h4.128a4.714,4.714,0,0,0,3.081-.863,3.136,3.136,0,0,0,.986-2.588,3.136,3.136,0,0,0-.986-2.588,4.832,4.832,0,0,0-3.081-.863Zm0-7.763v5.669h3.82a5.056,5.056,0,0,0,2.834-.678,2.546,2.546,0,0,0,.924-2.157,2.625,2.625,0,0,0-.924-2.157,4.481,4.481,0,0,0-2.834-.678Zm-2.588-2.095h6.593a7.566,7.566,0,0,1,4.559,1.232,4.132,4.132,0,0,1,1.6,3.45,4.245,4.245,0,0,1-.8,2.773,3.833,3.833,0,0,1-2.4,1.294,4.719,4.719,0,0,1,2.957,1.664,5,5,0,0,1,1.047,3.2A4.642,4.642,0,0,1,69.4,37.917a7.7,7.7,0,0,1-4.929,1.356h-6.9Zm20.271,9.858v6.9h4.128a4.832,4.832,0,0,0,3.081-.863,3.135,3.135,0,0,0,.986-2.588,3.135,3.135,0,0,0-.986-2.588,4.832,4.832,0,0,0-3.081-.863Zm0-7.763v5.669h3.82A5.056,5.056,0,0,0,84.5,27.5a2.546,2.546,0,0,0,.924-2.157,2.625,2.625,0,0,0-.924-2.157,4.48,4.48,0,0,0-2.834-.678Zm-2.588-2.095h6.593a7.566,7.566,0,0,1,4.559,1.232,4.132,4.132,0,0,1,1.6,3.45,4.245,4.245,0,0,1-.8,2.773,3.833,3.833,0,0,1-2.4,1.294,4.721,4.721,0,0,1,2.958,1.664,5,5,0,0,1,1.047,3.2,4.642,4.642,0,0,1-1.725,3.882,7.7,7.7,0,0,1-4.929,1.356h-6.9Zm17.622,0h2.588V39.273H92.878Zm7.455,0h2.834l4.5,6.778,4.559-6.778h2.711l-5.915,8.811,6.654,10.043h-2.834L107.6,31.386l-5.237,7.887H99.594l6.654-9.982Z" transform="translate(-16.291 -16.291)" fill="#fff"/></svg>